ply
format ascii 1.0
comment VCGLIB generated
element vertex 8
property float x
property float y
property float z
property float nx
property float ny
property float nz
property uchar red
property uchar green
property uchar blue
property uchar alpha
element face 12
property list uchar int vertex_indices
end_header
-2.121321 -3.535534 0.9999997 -0.2357023 -0.7071068 0.6666666 255 85 0 255 
-3.535533 -2.12132 0.9999997 -0.8660254 0.2886751 0.4082482 255 85 0 255 
-3.535533 -2.12132 -0.9999999 -0.7071068 -0.2357022 -0.6666667 255 85 0 255 
-2.121321 -3.535534 -0.9999999 0.2886752 -0.8660254 -0.4082484 255 85 0 255 
3.535533 2.12132 -0.9999997 0.7071068 0.2357022 -0.6666667 171 251 124 255 
2.121321 3.535534 -0.9999997 -0.2886752 0.8660254 -0.4082483 170 255 127 255 
2.121321 3.535534 0.9999999 0.2357023 0.7071068 0.6666666 170 253 126 255 
3.535533 2.12132 0.9999999 0.8660254 -0.2886751 0.4082483 181 232 110 255 
3 0 1 2 
3 0 2 3 
3 4 3 2 
3 4 2 5 
3 5 2 1 
3 5 1 6 
3 6 7 4 
3 6 4 5 
3 7 0 3 
3 7 3 4 
3 6 1 0 
3 6 0 7 
