ply
format ascii 1.0
comment VCGLIB generated
element vertex 8
property float x
property float y
property float z
property float nx
property float ny
property float nz
property uchar red
property uchar green
property uchar blue
property uchar alpha
element face 12
property list uchar int vertex_indices
end_header
-1 4 0.9999998 -0.3333334 0.6666667 0.6666667 255 85 0 255 
0.9999995 4 0.9999998 0.8164966 0.4082484 0.4082483 255 85 0 255 
0.9999995 4 -1 0.3333333 0.6666667 -0.6666667 255 85 0 255 
-1 4 -1 -0.8164966 0.4082482 -0.4082484 255 85 0 255 
-0.9999995 -4 -0.9999998 -0.3333333 -0.6666667 -0.6666667 171 251 124 255 
1 -4 -0.9999998 0.8164967 -0.4082482 -0.4082483 170 255 127 255 
1 -4 1 0.3333334 -0.6666667 0.6666667 170 253 126 255 
-0.9999995 -4 1 -0.8164966 -0.4082484 0.4082484 181 232 110 255 
3 0 1 2 
3 0 2 3 
3 4 3 2 
3 4 2 5 
3 5 2 1 
3 5 1 6 
3 6 7 4 
3 6 4 5 
3 7 0 3 
3 7 3 4 
3 6 1 0 
3 6 0 7 
